<svg xmlns="http://www.w3.org/2000/svg">
    <symbol id="arrowSprite" viewBox="0 0 53 58">
        <path d="M26.4946 58L52.4946 0L26.4946 9.5L0.494629 0L26.4946 58Z" fill="currentColor" />
    </symbol>

    <symbol id="logo" viewBox="0 0 240 52">
        <path fill-rule="evenodd" clip-rule="evenodd"
            d="M102.546 45.1111L120.414 6L102.546 12.4061L84.6776 6L102.546 45.1111ZM10 7.53392H15.4885V29.9387H10V7.53392ZM19.355 18.1322H30.1913V21.9986H19.355V18.1322ZM34.0507 7.53392H43.7612C46.4351 7.53392 48.546 7.74105 50.0941 8.15532C51.6421 8.54657 52.7797 9.237 53.5068 10.2266C54.2339 11.2163 54.5975 12.5856 54.5975 14.3348V23.4486C54.5975 25.1516 54.2574 26.475 53.5772 27.4186C52.897 28.3392 51.7829 28.9951 50.2348 29.3863C48.6868 29.7546 46.5406 29.9387 43.7964 29.9387H34.0507V7.53392ZM43.5501 26.1068C45.0512 26.1068 46.1771 26.0492 46.9276 25.9341C47.7017 25.7961 48.2529 25.5429 48.5812 25.1747C48.9331 24.8064 49.109 24.2311 49.109 23.4486V14.2312C49.109 13.1725 48.675 12.436 47.8072 12.0218C46.9628 11.5845 45.6024 11.3659 43.726 11.3659H39.5392V26.1068H43.5501ZM59.0291 7.53392H76.4446V11.3659H64.5177V16.5096H75.2836V20.3416H64.5177V26.1068H76.7964V29.9387H59.0291V7.53392ZM134.72 7.53392H129.232V29.9387H134.72V7.53392ZM152.379 7.53392H145.694L137.25 29.9387H142.668L144.673 24.0354H153.012L155.052 29.9387H160.611L152.379 7.53392ZM148.931 12.0218L151.816 20.4451H145.905L148.79 12.0218H148.931ZM161.384 11.3659H168.421V29.9387H173.909V11.3659H180.911V7.53392H161.384V11.3659ZM190.858 30.0423C191.937 30.2034 193.109 30.2839 194.376 30.2839C197.003 30.2839 199.372 29.8697 201.483 29.0411C202.656 28.5808 203.57 27.9019 204.227 27.0043C204.907 26.1068 205.248 25.0366 205.248 23.7938V13.9895C205.248 12.7928 204.99 11.7686 204.474 10.9171C203.981 10.0885 203.371 9.44414 202.644 8.98384C201.917 8.52355 200.99 8.1323 199.865 7.8101C198.879 7.55693 197.988 7.39583 197.191 7.32679C196.393 7.23473 195.455 7.1887 194.376 7.1887C193.461 7.1887 192.593 7.22322 191.773 7.29227C190.881 7.36131 189.92 7.54543 188.888 7.84462C187.856 8.14381 186.988 8.51204 186.284 8.94932C185.487 9.45564 184.83 10.1461 184.314 11.0206C183.821 11.8952 183.575 12.8848 183.575 13.9895V23.7938C183.575 25.1286 183.927 26.2679 184.63 27.2115C185.334 28.132 186.307 28.7995 187.551 29.2137C188.7 29.605 189.802 29.8812 190.858 30.0423ZM196.381 26.3829C195.865 26.429 195.22 26.452 194.446 26.452C193.672 26.452 193.016 26.429 192.476 26.3829C191.96 26.3139 191.421 26.1988 190.858 26.0377C190.271 25.8766 189.826 25.6119 189.521 25.2437C189.216 24.8525 189.063 24.3691 189.063 23.7938V13.955C189.063 12.8733 189.497 12.1138 190.365 11.6766C191.233 11.2393 192.582 11.0206 194.411 11.0206C196.241 11.0206 197.589 11.2508 198.457 11.7111C199.325 12.1484 199.759 12.8963 199.759 13.955V23.7938C199.759 24.3691 199.607 24.8525 199.302 25.2437C199.02 25.6119 198.598 25.8766 198.035 26.0377C197.472 26.1988 196.921 26.3139 196.381 26.3829ZM219.938 7.53392H209.664V29.9387H215.153V21.1356H217.686L223.667 29.9387H230L223.386 20.7213C224.957 20.5142 226.212 20.0424 227.15 19.3059C228.112 18.5464 228.593 17.5108 228.593 16.1989V12.2634C228.593 10.5603 227.912 9.35208 226.552 8.63862C225.192 7.90215 222.987 7.53392 219.938 7.53392ZM222.506 17.0965C222.037 17.4187 221.157 17.5798 219.867 17.5798H215.153V11.3659H219.867C221.087 11.3659 221.943 11.527 222.436 11.8492C222.952 12.1484 223.21 12.7122 223.21 13.5407V15.1288C223.21 16.0954 222.975 16.7513 222.506 17.0965Z" />
    </symbol>

  

    <symbol id="sun" viewBox="0 0 457.32 457.32">
        <g id="XMLID_467_">
            <path id="XMLID_922_" d="M228.66,112.692c-63.945,0-115.968,52.022-115.968,115.967c0,63.945,52.023,115.968,115.968,115.968
		s115.968-52.023,115.968-115.968C344.628,164.715,292.605,112.692,228.66,112.692z" />
            <path id="XMLID_1397_" d="M401.429,228.66l42.467-57.07c2.903-3.9,3.734-8.966,2.232-13.59c-1.503-4.624-5.153-8.233-9.794-9.683
		l-67.901-21.209l0.811-71.132c0.056-4.862-2.249-9.449-6.182-12.307c-3.934-2.858-9.009-3.633-13.615-2.077l-67.399,22.753
		L240.895,6.322C238.082,2.356,233.522,0,228.66,0c-4.862,0-9.422,2.356-12.235,6.322l-41.154,58.024l-67.4-22.753
		c-4.607-1.555-9.682-0.781-13.615,2.077c-3.933,2.858-6.238,7.445-6.182,12.307l0.812,71.132l-67.901,21.209
		c-4.641,1.45-8.291,5.059-9.793,9.683c-1.503,4.624-0.671,9.689,2.232,13.59l42.467,57.07l-42.467,57.07
		c-2.903,3.9-3.734,8.966-2.232,13.59c1.502,4.624,5.153,8.233,9.793,9.683l67.901,21.208l-0.812,71.132
		c-0.056,4.862,2.249,9.449,6.182,12.307c3.934,2.857,9.007,3.632,13.615,2.077l67.4-22.753l41.154,58.024
		c2.813,3.966,7.373,6.322,12.235,6.322c4.862,0,9.422-2.356,12.235-6.322l41.154-58.024l67.399,22.753
		c4.606,1.555,9.681,0.781,13.615-2.077c3.933-2.858,6.238-7.445,6.182-12.306l-0.811-71.133l67.901-21.208
		c4.641-1.45,8.291-5.059,9.794-9.683c1.502-4.624,0.671-9.689-2.232-13.59L401.429,228.66z M228.66,374.627
		c-80.487,0-145.968-65.481-145.968-145.968S148.173,82.692,228.66,82.692s145.968,65.48,145.968,145.967
		S309.147,374.627,228.66,374.627z" />
        </g>
    </symbol>

    <symbol id="moon" viewBox="0 0 512 512">
       
    <path style="fill:#E5E5E5;" d="M317.217,256c0-90.635,49.245-169.762,122.435-212.103C403.634,23.061,361.82,11.13,317.217,11.13
	c-135.238,0-244.87,109.631-244.87,244.87s109.631,244.87,244.87,244.87c44.603,0,86.417-11.931,122.435-32.767
	C366.463,425.762,317.217,346.635,317.217,256z"/>
<g>
	<circle style="fill:#AFAFAF;" cx="148.035" cy="256" r="22.261"/>
	<circle style="fill:#AFAFAF;" cx="203.687" cy="356.174" r="33.205"/>
</g>
<path d="M445.226,458.468C373.132,416.764,328.348,339.181,328.348,256S373.132,95.238,445.226,53.532
	c3.439-1.989,5.556-5.661,5.556-9.635c0-3.972-2.117-7.645-5.556-9.635C406.479,11.848,362.214,0,317.217,0
	c-68.381,0-132.667,26.628-181.02,74.981C87.846,123.333,61.217,187.62,61.217,256s26.628,132.667,74.98,181.019
	C184.55,485.372,248.836,512,317.217,512c44.997,0,89.261-11.848,128.009-34.263c3.439-1.989,5.556-5.661,5.556-9.635
	S448.666,460.457,445.226,458.468z M317.217,489.739C188.334,489.739,83.478,384.884,83.478,256S188.334,22.261,317.217,22.261
	c34.768,0,69.049,7.742,100.198,22.519c-30.887,21.201-56.938,49.043-76.016,81.406c-23.101,39.19-35.312,84.078-35.312,129.814
	s12.211,90.624,35.314,129.814c19.079,32.363,45.129,60.205,76.016,81.406C386.266,481.997,351.986,489.739,317.217,489.739z"/>
<path d="M196.852,111.304c2.459,0,4.935-0.811,6.994-2.479c33.507-27.112,75.745-42.043,118.936-42.043
	c6.146,0,11.13-4.983,11.13-11.13s-4.984-11.13-11.13-11.13c-48.272,0-95.482,16.691-132.939,46.999
	c-4.779,3.867-5.518,10.876-1.651,15.654C190.393,109.893,193.608,111.304,196.852,111.304z"/>
<path d="M173.454,133.544c3.032,0,6.053-1.23,8.252-3.646c0.058-0.065,0.174-0.194,0.23-0.259c4.029-4.643,3.533-11.672-1.11-15.702
	c-4.608-3.998-11.57-3.539-15.613,1.01c-0.004,0.004-0.008,0.009-0.01,0.01c-4.123,4.552-3.77,11.575,0.778,15.703
	C168.112,132.592,170.786,133.544,173.454,133.544z"/>
<path d="M180.313,256c0-18.412-14.979-33.391-33.391-33.391S113.53,237.588,113.53,256s14.979,33.391,33.391,33.391
	S180.313,274.412,180.313,256z M146.922,267.13c-6.137,0-11.13-4.993-11.13-11.13c0-6.137,4.993-11.13,11.13-11.13
	s11.13,4.993,11.13,11.13C158.052,262.137,153.059,267.13,146.922,267.13z"/>
<path d="M202.574,311.838c-24.447,0-44.336,19.889-44.336,44.336c0,24.447,19.889,44.336,44.336,44.336s44.336-19.889,44.336-44.336
	C246.91,331.727,227.021,311.838,202.574,311.838z M202.574,378.249c-12.172,0-22.075-9.903-22.075-22.075
	s9.903-22.075,22.075-22.075c12.172,0,22.075,9.903,22.075,22.075S214.746,378.249,202.574,378.249z"/>
       
    </symbol>

</svg>